<svg width="113" height="65" viewBox="0 0 113 65" fill="none" xmlns="http://www.w3.org/2000/svg">
<path d="M58.9912 8.48131C55.195 5.27825 50.7043 2.88783 45.8292 1.47513C40.9542 0.0624335 35.811 -0.338869 30.7548 0.298938C25.6987 0.936746 20.8501 2.59846 16.5439 5.16933C12.2377 7.74019 8.57652 11.1589 5.81327 15.1894C3.05002 19.2199 1.25052 23.7661 0.539058 28.514C-0.172407 33.262 0.221118 38.0985 1.69245 42.6895C3.16379 47.2805 5.67787 51.5167 9.06107 55.1054C12.4443 58.6941 16.6159 61.5499 21.288 63.4754C23.1222 64.2319 25.1267 64.5512 27.1237 64.4049C29.1206 64.2586 31.0483 63.6513 32.7356 62.6368C34.4229 61.6223 35.8177 60.232 36.7962 58.5893C37.7746 56.9466 38.3065 55.1023 38.3447 53.22V44.5277C41.5542 43.8855 44.4316 42.2268 46.4954 39.829C48.5592 37.4312 49.6842 34.4399 49.682 31.3558C49.682 30.648 49.3828 29.9692 48.8503 29.4688C48.3178 28.9683 47.5956 28.6871 46.8426 28.6871H44.064V24.2075C44.064 23.4947 43.7627 22.811 43.2264 22.307C42.6901 21.8029 41.9628 21.5198 41.2043 21.5198C40.4459 21.5198 39.7185 21.8029 39.1822 22.307C38.6459 22.811 38.3447 23.4947 38.3447 24.2075V28.6871H32.6253V24.2075C32.6253 23.4947 32.324 22.811 31.7877 22.307C31.2514 21.8029 30.5241 21.5198 29.7656 21.5198C29.0072 21.5198 28.2798 21.8029 27.7435 22.307C27.2072 22.811 26.9059 23.4947 26.9059 24.2075V28.6871H24.0463C23.2932 28.6871 22.571 28.9683 22.0385 29.4688C21.506 29.9692 21.2069 30.648 21.2069 31.3558C21.2086 34.4506 22.3451 37.4502 24.4249 39.8494C26.5047 42.2487 29.4008 43.9009 32.6253 44.5277V53.22C32.6483 54.2111 32.3969 55.1909 31.8955 56.0631C31.3942 56.9353 30.6602 57.67 29.7656 58.1952C28.8698 58.7362 27.8458 59.0609 26.7844 59.1407C25.723 59.2205 24.6571 59.0529 23.6812 58.6527C17.6895 56.2325 12.7187 52.0161 9.54464 46.6615C6.37056 41.307 5.1717 35.1155 6.13516 29.0532C7.09861 22.9909 10.1702 17.3989 14.8705 13.1499C19.5709 8.90083 25.6356 6.23374 32.1183 5.56481C36.2647 5.10545 40.4677 5.48526 44.4451 6.67873C48.4225 7.87221 52.0821 9.85172 55.1782 12.4843C58.2686 15.0871 60.7416 18.272 62.4363 21.8321C64.131 25.3921 65.0095 29.2475 65.0147 33.1476C64.9814 33.5183 65.0304 33.8915 65.1585 34.2435C65.2865 34.5955 65.491 34.9187 65.7588 35.1926C66.0267 35.4665 66.3521 35.6852 66.7145 35.8347C67.077 35.9843 67.4685 36.0615 67.8643 36.0615C68.2601 36.0615 68.6516 35.9843 69.014 35.8347C69.3764 35.6852 69.7019 35.4665 69.9697 35.1926C70.2376 34.9187 70.442 34.5955 70.5701 34.2435C70.6982 33.8915 70.7471 33.5183 70.7138 33.1476C70.7144 28.4927 69.6707 23.8899 67.6508 19.6397C65.6309 15.3895 62.6801 11.5873 58.9912 8.48131ZM27.3724 34.0436H43.5976C43.0191 35.618 41.9326 36.9837 40.4894 37.9504C39.0462 38.9171 37.3181 39.4366 35.5458 39.4366C33.7736 39.4366 32.0455 38.9171 30.6023 37.9504C29.159 36.9837 28.0725 35.618 27.4941 34.0436H27.3724Z" fill="white"/>
<path d="M53.6551 40.3665H65.3591V43.2225H56.9591V48.0105H64.8271V50.8665H56.9591V55.6545H65.3591V58.5385H53.6551V40.3665ZM74.8214 40.3665L79.8054 51.1745L84.7894 40.3665H89.3534V58.5385H86.0214V44.7345L80.8694 56.5505H78.7134L73.3934 44.3425V58.5385H70.0894V40.3665H74.8214ZM104.11 45.3785C103.811 43.7918 102.691 42.9985 100.75 42.9985C99.798 42.9985 99.0513 43.1945 98.51 43.5865C97.9873 43.9598 97.726 44.4171 97.726 44.9585C97.726 45.4998 97.894 45.9291 98.23 46.2465C98.5847 46.5451 99.126 46.8251 99.854 47.0865L103.802 48.6265C105.146 49.1491 106.182 49.8118 106.91 50.6145C107.638 51.3985 108.002 52.3878 108.002 53.5825C108.002 55.2251 107.386 56.5318 106.154 57.5025C104.922 58.4545 103.167 58.9305 100.89 58.9305C98.874 58.9305 97.2407 58.4358 95.99 57.4465C94.59 56.3638 93.8527 54.8331 93.778 52.8545H97.054C97.054 54.3478 97.8287 55.2905 99.378 55.6825C99.8447 55.8131 100.461 55.8785 101.226 55.8785C101.991 55.8785 102.701 55.6918 103.354 55.3185C104.007 54.9265 104.334 54.4131 104.334 53.7785C104.334 53.1251 104.157 52.6305 103.802 52.2945C103.447 51.9398 102.869 51.6131 102.066 51.3145L98.454 49.8865C97.054 49.3451 95.9807 48.7105 95.234 47.9825C94.4873 47.2545 94.114 46.2465 94.114 44.9585C94.114 43.4465 94.702 42.2518 95.878 41.3745C97.0727 40.4598 98.6873 40.0025 100.722 40.0025C102.775 40.0025 104.353 40.4785 105.454 41.4305C106.574 42.3638 107.218 43.6798 107.386 45.3785H104.11Z" fill="white"/>
</svg>
